<svg xmlns="http://www.w3.org/2000/svg" width="88" height="88" viewBox="0 0 88 88" fill="none" aria-hidden="true">
<path d="M42 74c.5-16 2.5-31 8-45" stroke="#8C4A58" stroke-width="3" stroke-linecap="round"/>
<path d="M47 35C35 26 34 13 42 7c9 5 14 15 8 29Z" fill="#EDD0C8" stroke="#AC596C" stroke-width="2"/>
<path d="M50 37c5-15 17-22 27-17-1 13-11 24-27 21Z" fill="#D98484" stroke="#AC596C" stroke-width="2"/>
<path d="M44 39c-15-8-29-3-34 9 14 9 29 4 37-5Z" fill="#F4D6BD" stroke="#AC596C" stroke-width="2"/>
<path d="M45 62c-12-12-25-13-31-7 8 11 20 16 32 11Z" fill="#9AAE88" stroke="#748966" stroke-width="1.5"/>
</svg>